<?xml version="1.0" encoding="UTF-8" standalone="no"?>
<svg
   xmlns:dc="http://purl.org/dc/elements/1.1/"
   xmlns:cc="http://creativecommons.org/ns#"
   xmlns:rdf="http://www.w3.org/1999/02/22-rdf-syntax-ns#"
   xmlns:svg="http://www.w3.org/2000/svg"
   xmlns="http://www.w3.org/2000/svg"
   viewBox="0 0 398.63696 152.39078"
   height="152.39078"
   width="398.63696"
   xml:space="preserve"
   id="svg2"
   version="1.1"><metadata
     id="metadata8"><rdf:RDF><cc:Work
         rdf:about=""><dc:format>image/svg+xml</dc:format><dc:type
           rdf:resource="http://purl.org/dc/dcmitype/StillImage" /><dc:title></dc:title></cc:Work></rdf:RDF></metadata><defs
     id="defs6"><clipPath
       id="clipPath18"
       clipPathUnits="userSpaceOnUse"><path
         id="path16"
         d="M 0,595.276 H 841.89 V 0 H 0 Z" /></clipPath></defs><g
     transform="matrix(1.3333333,0,0,-1.3333333,-361.94104,473.04516)"
     id="g10"><g
       id="g90"><g
         id="g20"
         transform="translate(395.2544,247.084)"><path
           d="m 0,0 c 0,3.646 -2.956,6.6 -6.602,6.593 -8.846,-0.018 -20.819,0.013 -27.173,0.015 -3.555,0.001 -7.11,0 -11.779,0 2.331,3.001 3.834,4.955 5.357,6.893 11.325,14.406 23.01,28.547 33.873,43.294 9.338,12.677 8.355,27.815 -1.397,39.177 -9.792,11.408 -25.63,15.05 -39.019,8.45 -11.493,-5.666 -17.977,-15.066 -18.635,-28.062 -0.225,-4.431 2.348,-7.495 6.027,-7.756 3.712,-0.264 6.39,2.417 6.886,6.9 0.091,0.827 0.11,1.665 0.25,2.483 1.364,7.992 7.404,14.451 15.114,16.188 7.789,1.756 15.99,-1.333 20.625,-8.082 4.741,-6.903 4.542,-14.059 0.305,-21.136 -1.192,-1.991 -2.654,-3.832 -4.1,-5.657 C -31.111,45.622 -50.71,21.05 -64.649,3.528 -67.9,-0.56 -64.989,-6.593 -59.767,-6.593 H -6.593 C -2.952,-6.593 0,-3.641 0,0"
           style="fill:#000000;fill-opacity:1;fill-rule:nonzero;stroke:none"
           id="path22" /></g><g
         id="g24"
         transform="translate(311.6182,347.791)"><path
           d="m 0,0 c 0.119,-30.971 0.067,-74.198 0.122,-100.757 0.007,-3.613 -2.919,-6.543 -6.533,-6.543 -3.621,0 -6.551,2.942 -6.532,6.563 0.129,24.389 0.045,56.275 0.045,79.138 v 6.331 c -4.171,-4.145 -11.222,-11.222 -16.371,-16.361 -2.376,-2.371 -6.181,-2.495 -8.71,-0.286 -2.769,2.42 -2.927,6.673 -0.344,9.291 5.771,5.852 17.749,17.829 27.252,27.219 C -6.972,8.646 -0.022,5.764 0,0"
           style="fill:#000000;fill-opacity:1;fill-rule:nonzero;stroke:none"
           id="path26" /></g><g
         id="g28"
         transform="translate(427.9346,314.6743)"><path
           d="m 0,0 c -0.087,-4.071 -3.314,-7.161 -7.382,-7.07 -4.093,0.092 -7.12,3.264 -7.056,7.394 0.061,4.014 3.365,7.194 7.387,7.112 C -3.052,7.353 0.087,4.043 0,0"
           style="fill:#000000;fill-opacity:1;fill-rule:nonzero;stroke:none"
           id="path30" /></g><g
         id="g32"
         transform="translate(427.9346,247.5635)"><path
           d="m 0,0 c -0.087,-4.071 -3.314,-7.161 -7.382,-7.07 -4.093,0.091 -7.12,3.264 -7.056,7.394 0.061,4.014 3.365,7.194 7.387,7.112 C -3.052,7.354 0.087,4.043 0,0"
           style="fill:#000000;fill-opacity:1;fill-rule:nonzero;stroke:none"
           id="path34" /></g><g
         id="g36"
         transform="translate(498.625,321.3828)"><path
           d="m 0,0 c -0.114,11.573 -8.451,20.16 -19.562,20.268 -10.928,0.105 -19.647,-8.084 -19.846,-19.407 -0.286,-16.296 -0.26,-32.603 -0.009,-48.9 0.173,-11.208 8.982,-19.661 19.737,-19.616 10.928,0.046 19.541,8.836 19.687,20.25 0.102,7.983 0.02,15.968 0.014,23.952 C 0.015,-15.635 0.077,-7.817 0,0 m -19.786,-80.892 c -18.086,0 -32.761,14.642 -32.797,32.728 -0.037,18.854 -0.021,39.581 0.158,49.209 0.345,18.65 14.658,32.309 33.101,32.138 18.174,-0.168 32.22,-14.484 32.295,-33.03 0.036,-9.066 0.047,-29.569 0.04,-48.259 -0.006,-18.11 -14.688,-32.786 -32.797,-32.786"
           style="fill:#000000;fill-opacity:1;fill-rule:nonzero;stroke:none"
           id="path38" /></g><g
         id="g40"
         transform="translate(570.3125,347.791)"><path
           d="m 0,0 c 0.119,-30.971 0.067,-74.198 0.121,-100.757 0.008,-3.613 -2.919,-6.543 -6.532,-6.543 -3.622,0 -6.552,2.942 -6.532,6.563 0.129,24.389 0.045,56.275 0.044,79.138 v 6.331 c -4.17,-4.145 -11.221,-11.222 -16.371,-16.361 -2.376,-2.371 -6.181,-2.495 -8.709,-0.286 -2.769,2.42 -2.927,6.673 -0.345,9.291 5.771,5.852 17.75,17.829 27.252,27.219 C -6.973,8.646 -0.022,5.764 0,0"
           style="fill:#000000;fill-opacity:1;fill-rule:nonzero;stroke:none"
           id="path42" /></g></g></g></svg>